HIERARCHY
ROOT Hips
{
	OFFSET -3.958830 18.904000 13.208200
	CHANNELS 6 Xposition Yposition Zposition Zrotation Yrotation Xrotation 
	JOINT LHipJoint
	{
		OFFSET 0.000000 0.000000 0.000000
		CHANNELS 3 Zrotation Yrotation Xrotation
		JOINT LeftUpLeg
		{
			OFFSET 1.800000 -1.400000 0.085000
			CHANNELS 3 Zrotation Yrotation Xrotation
			JOINT LeftLeg
			{
				OFFSET 2.215000 -6.000000 0.000000
				CHANNELS 3 Zrotation Yrotation Xrotation
				JOINT LeftFoot
				{
					OFFSET 2.500000 -6.900000 0.000000
					CHANNELS 3 Zrotation Yrotation Xrotation
					JOINT LeftToeBase
					{
						OFFSET 0.200000 -0.500000 1.950000
						CHANNELS 3 Zrotation Yrotation Xrotation
						End Site
						{
							OFFSET 0.000000 0.000000 0.000000
						}
					}
				}
			}
		}
	}
	JOINT RHipJoint
	{
		OFFSET 0.000000 0.000000 0.000000
		CHANNELS 3 Zrotation Yrotation Xrotation
		JOINT RightUpLeg
		{
			OFFSET -1.800000 -1.400000 0.085000
			CHANNELS 3 Zrotation Yrotation Xrotation
			JOINT RightLeg
			{
				OFFSET -2.215000 -6.000000 0.000000
				CHANNELS 3 Zrotation Yrotation Xrotation
				JOINT RightFoot
				{
					OFFSET -2.500000 -6.900000 0.000000
					CHANNELS 3 Zrotation Yrotation Xrotation
					JOINT RightToeBase
					{
						OFFSET -0.200000 -0.500000 1.950000
						CHANNELS 3 Zrotation Yrotation Xrotation
						End Site
						{
							OFFSET 0.000000 0.000000 0.000000
						}
					}
				}
			}
		}
	}
	JOINT LowerBack
	{
		OFFSET 0.000000 0.000000 0.000000
		CHANNELS 3 Zrotation Yrotation Xrotation
		JOINT Spine
		{
			OFFSET -0.087000 1.940000 -0.288900
			CHANNELS 3 Zrotation Yrotation Xrotation
			JOINT Spine1
			{
				OFFSET 0.000000 1.950000 0.060000
				CHANNELS 3 Zrotation Yrotation Xrotation
				JOINT Neck
				{
					OFFSET 0.000000 0.000000 0.000000
					CHANNELS 3 Zrotation Yrotation Xrotation
					JOINT Neck1
					{
						OFFSET 0.000000 1.600000 0.340000
						CHANNELS 3 Zrotation Yrotation Xrotation
						JOINT Head
						{
							OFFSET 0.000000 1.667000 -0.240000
							CHANNELS 3 Zrotation Yrotation Xrotation
							End Site
							{
								OFFSET 0.000000 0.000000 0.000000
							}
						}
					}
				}
				JOINT LeftShoulder
				{
					OFFSET 0.000000 0.000000 0.000000
					CHANNELS 3 Zrotation Yrotation Xrotation
					JOINT LeftArm
					{
						OFFSET 2.700000 1.550000 -0.730000
						CHANNELS 3 Zrotation Yrotation Xrotation
						JOINT LeftForeArm
						{
							OFFSET 5.450000 0.000000 0.000000
							CHANNELS 3 Zrotation Yrotation Xrotation
							JOINT LeftHand
							{
								OFFSET 3.450000 0.000000 0.000000
								CHANNELS 3 Zrotation Yrotation Xrotation
								JOINT LeftHandIndex1
								{
									OFFSET 0.750000 0.000000 0.000000
									CHANNELS 3 Zrotation Yrotation Xrotation
									End Site
									{
										OFFSET 0.000000 0.000000 0.000000
									}
								}
							}
						}
					}
				}
				JOINT RightShoulder
				{
					OFFSET 0.000000 0.000000 0.000000
					CHANNELS 3 Zrotation Yrotation Xrotation
					JOINT RightArm
					{
						OFFSET -2.700000 1.550000 -0.730000
						CHANNELS 3 Zrotation Yrotation Xrotation
						JOINT RightForeArm
						{
							OFFSET -5.450000 0.000000 0.000000
							CHANNELS 3 Zrotation Yrotation Xrotation
							JOINT RightHand
							{
								OFFSET -3.450000 0.000000 0.000000
								CHANNELS 3 Zrotation Yrotation Xrotation
								JOINT RightHandIndex1
								{
									OFFSET -0.750000 0.000000 0.000000
									CHANNELS 3 Zrotation Yrotation Xrotation
									End Site
									{
										OFFSET 0.000000 0.000000 0.000000
									}
								}
							}
						}
					}
				}
			}
		}
	}
}
MOTION
Frames: 9
Frame Time: 0.016667
0.155800 17.097280 -6.864810 -4.303832 17.554747 -9.458075 -15.242469 13.729532 3.756455 25.278657 2.365333 -31.444394 4.741588 6.105068 27.376072 -0.650854 6.490992 2.183836 -0.804600 -1.476940 -0.556100 18.038500 -11.204467 1.463011 -32.379045 4.489214 -4.572481 1.871280 -8.905117 33.318896 -0.560497 -6.176246 1.925452 -0.851070 0.880920 0.428510 -3.672285 -2.808050 -8.086836 11.900934 -1.824323 50.937181 -9.724372 5.265723 -11.329633 4.560262 -12.087504 -15.050766 -34.549416 16.976282 35.295606 7.332220 2.116260 -12.441150 6.369798 19.975795 4.519401 -25.399222 54.379116 -20.268516 -56.845911 13.102292 -18.914697 -3.647540 2.220412 1.362370 -0.027630 0.088120 -0.041770 -13.249109 -6.652837 9.310328 38.473355 -48.493090 -25.917824 69.803123 -10.630151 -19.555663 2.037848 -0.123978 -0.742130 0.578930 0.951360 -0.063650 
0.441070 17.097090 -6.843270 -3.542733 18.515474 -7.444992 -15.281427 13.652701 3.933794 23.941781 1.210207 -33.440491 4.015749 6.398005 29.621992 -0.548003 6.600540 2.160577 -0.839660 -1.503390 -0.593770 18.017036 -11.103060 1.513771 -31.924607 4.661935 -7.020122 2.731916 -9.557652 35.853482 -0.560064 -6.397138 1.857705 -0.906360 0.864610 0.431110 -3.602815 -2.910608 -8.177384 10.989248 -1.466130 49.138052 -9.542428 5.152094 -12.164180 5.027135 -11.928636 -15.348454 -32.354956 14.490759 34.954147 6.634670 1.293010 -10.705920 3.571679 17.380665 4.232383 -25.867758 53.030663 -20.177746 -58.942883 13.318807 -19.731953 -3.675663 2.334920 1.293890 -0.015810 0.066480 -0.038170 -11.009196 -4.033795 10.015092 40.661432 -48.613818 -26.960062 70.653483 -9.592063 -19.471295 2.114683 -0.192151 -0.690000 0.504590 0.933480 -0.043490 
0.689500 17.120060 -6.837630 -2.970340 18.584272 -5.646941 -15.280986 13.303073 4.277976 23.650503 0.209757 -35.479818 0.966000 7.803281 32.581183 -0.473440 7.202960 1.967988 -0.866310 -1.525870 -0.618320 18.082867 -10.983343 1.559069 -29.951110 5.080050 -10.879813 2.815438 -9.960924 39.605454 -0.578619 -6.642941 1.788528 -0.920790 0.883020 0.414130 -3.677015 -2.611872 -8.311680 10.769741 -1.723844 47.749669 -10.323534 4.521137 -13.091641 5.091329 -11.794596 -15.069506 -31.015494 12.750126 34.605393 5.750660 0.448490 -10.456140 1.012004 15.734955 3.309195 -27.832791 48.482127 -19.642274 -58.144804 14.946981 -20.130142 -3.743141 2.330728 1.262960 -0.000880 0.039330 -0.030460 -8.595788 -2.893673 10.373514 45.644873 -46.507665 -28.823510 69.048108 -5.629901 -16.305676 2.153125 -0.217326 -0.695590 0.512140 0.934070 -0.033380 
0.921810 17.166060 -6.797390 -2.877548 17.166686 -4.535397 -15.278528 13.067320 4.530512 24.316553 0.332397 -36.198812 -1.850892 9.471032 34.524763 -0.327287 7.841555 1.767468 -0.862580 -1.492050 -0.651110 18.146624 -10.854348 1.590492 -26.603072 5.810114 -14.104453 1.611012 -9.426585 42.537348 -0.604438 -6.681683 1.818159 -0.920070 0.902010 0.390820 -3.717213 -2.393523 -8.391909 10.852279 -1.667919 46.725368 -10.384351 4.297926 -14.671025 4.815360 -12.128749 -14.864327 -31.772073 12.541454 33.669151 6.441390 -0.264010 -10.491500 -1.925690 15.109913 2.667784 -32.662692 45.484027 -20.458757 -53.910982 11.796892 -16.781307 -3.780078 2.317219 1.220910 -0.004190 0.030480 0.003100 -4.979421 -2.373516 10.658280 51.115197 -44.325414 -30.843017 66.748678 4.174638 -9.369039 2.163658 -0.297709 -0.674380 0.528010 0.905110 0.006780 
1.128400 17.232680 -6.748370 -2.202476 16.711004 -3.520353 -15.305158 12.967502 4.731921 23.749534 -0.070199 -37.127470 -3.785107 10.610011 36.132386 -0.213156 8.222503 1.647098 -0.826130 -1.437520 -0.618590 18.144257 -10.732495 1.669580 -23.556797 6.269052 -16.385396 0.176158 -8.868021 45.026382 -0.670577 -6.749984 1.823731 -0.917190 0.856550 0.380070 -3.655447 -2.410601 -8.500534 9.719688 -1.239748 46.033103 -10.006010 3.717320 -17.528900 4.944107 -11.565295 -14.725404 -30.798034 12.438391 36.074273 5.218630 -0.069950 -9.728740 -4.360537 14.279730 2.546919 -38.217655 43.339137 -21.258761 -47.536201 5.024366 -11.618828 -3.788799 2.287574 1.205450 -0.024220 0.056270 0.020580 -2.646190 -1.902351 10.526627 54.825592 -38.248962 -29.801462 61.096747 8.226143 -5.196069 2.239529 -0.385665 -0.638180 0.506190 0.852090 0.010610 
1.340880 17.299540 -6.708890 -2.714308 16.458173 -3.878761 -15.282229 12.927556 4.709582 23.251812 0.078549 -37.367559 -3.163328 10.896752 38.075098 -0.231595 8.418428 1.533767 -0.695690 -1.252510 -0.529790 18.173675 -10.695304 1.845102 -19.373298 6.906678 -17.526585 -0.650283 -8.528040 47.359414 -0.812253 -6.900885 1.788638 -0.809460 0.767020 0.393280 -3.721541 -2.180352 -8.576311 11.220535 -1.473629 44.380532 -10.778642 3.914694 -17.809574 4.520033 -10.552056 -13.857976 -29.424041 12.753574 42.373223 4.693260 -0.214270 -12.518210 -9.332406 11.897937 1.974929 -44.728527 39.145757 -21.886421 -36.024035 -2.931875 -6.703644 -3.822853 2.140893 1.242460 -0.052960 0.138520 0.026810 2.170024 -0.405638 9.464041 57.475530 -31.284043 -28.070082 50.106394 9.441210 -3.296195 2.303266 -0.366338 -0.599280 0.520540 0.792970 -0.013310 
1.523910 17.354110 -6.670630 -2.520050 16.824256 -3.750236 -15.265689 12.930825 4.593622 21.411550 -0.357411 -37.987490 -1.303990 10.407415 39.854639 -0.263196 8.362197 1.523505 -0.560670 -1.064650 -0.445450 18.182488 -10.652395 2.109549 -16.062600 7.489064 -18.950956 -1.136950 -8.477999 50.222080 -0.967753 -7.267789 1.654491 -0.691410 0.709170 0.430870 -3.758252 -2.027264 -8.662196 11.545016 -1.001920 41.872954 -10.633320 4.403742 -17.450934 3.830584 -9.188649 -12.663483 -26.573934 11.837686 47.945361 3.724890 -0.800870 -12.727190 -16.579487 7.993074 1.267737 -45.434064 33.606115 -18.680725 -25.190011 -5.339987 -4.547229 -3.862377 2.122408 1.212540 -0.041030 0.188490 0.043600 9.931850 2.034018 8.354704 58.880582 -26.761348 -26.159238 36.955973 13.194722 -1.432783 2.326338 -0.357588 -0.539820 0.507490 0.731810 -0.016490 
1.694830 17.392690 -6.624270 -1.757188 17.534208 -5.752291 -15.201669 13.174022 4.208609 18.956289 -1.020869 -35.934896 1.525231 9.233929 42.043213 -0.296568 8.177769 1.565347 -0.361640 -0.732760 -0.364210 18.170306 -10.899948 2.265415 -13.256986 7.346043 -17.806650 -2.105886 -8.172039 52.776483 -1.157204 -7.666885 1.534872 -0.483960 0.647360 0.439700 -3.868401 -1.763995 -8.560580 11.046801 -0.897099 40.439564 -9.915113 4.522368 -14.264794 2.722239 -7.737052 -10.754383 -23.439429 10.329061 53.110651 3.279980 -1.711100 -15.737180 -25.250233 3.495095 0.458676 -42.792767 27.467039 -14.485356 -17.407465 -6.071383 -3.329283 -3.831263 2.143131 1.152260 -0.029330 0.257040 0.091030 19.736173 4.606832 6.559419 56.479758 -21.728404 -22.152964 23.346387 14.542770 -0.758679 2.269630 -0.368140 -0.464600 0.547650 0.629020 0.010390 
1.844780 17.419100 -6.572290 -0.956019 17.451519 -7.025578 -15.240747 13.482487 3.981712 16.655312 -1.617137 -34.549575 3.973997 8.070943 43.447787 -0.388140 8.115023 1.597788 -0.306500 -0.670930 -0.288190 18.074428 -10.925133 2.434256 -10.195379 7.423022 -16.844695 -3.064583 -7.676280 54.601514 -1.268463 -7.902268 1.479515 -0.410060 0.639490 0.438680 -3.678517 -2.017693 -8.538108 8.636570 0.094601 40.007834 -8.250003 5.003753 -14.334743 2.559828 -5.992270 -9.921890 -19.683218 8.572252 57.473338 0.865840 -1.727390 -16.480590 -31.465838 0.366274 0.041400 -40.353274 23.477522 -10.934057 -10.568094 -6.045801 -2.582512 -3.859653 2.059061 1.180690 -0.004690 0.272180 0.083080 26.213653 6.611653 5.707896 54.230233 -17.917986 -17.849504 12.595116 12.972710 -0.329371 2.201678 -0.316787 -0.499570 0.610750 0.623740 -0.029290 
